<?xml version="1.0" encoding="UTF-8"?>
<!DOCTYPE svg PUBLIC "-//W3C//DTD SVG 1.1//EN" "http://www.w3.org/Graphics/SVG/1.1/DTD/svg11.dtd">
<!-- Creator: CorelDRAW -->
<svg xmlns="http://www.w3.org/2000/svg" xml:space="preserve" width="3972px" height="3972px" version="1.1" style="shape-rendering:geometricPrecision; text-rendering:geometricPrecision; image-rendering:optimizeQuality; fill-rule:evenodd; clip-rule:evenodd"
viewBox="0 0 2776.65 2776.65"
 xmlns:xlink="http://www.w3.org/1999/xlink"
 xmlns:xodm="http://www.corel.com/coreldraw/odm/2003">
 <defs>
  <style type="text/css">
   <![CDATA[
    .fil3 {fill:none}
    .fil2 {fill:white}
    .fil1 {fill:white;fill-rule:nonzero}
    .fil0 {fill:url(#id4);fill-rule:nonzero}
   ]]>
  </style>
   <mask id="id0">
  <linearGradient id="id1" gradientUnits="userSpaceOnUse" x1="63.69" y1="298.04" x2="524.8" y2="695.02">
   <stop offset="0" style="stop-opacity:1; stop-color:white"/>
   <stop offset="1" style="stop-opacity:0; stop-color:white"/>
  </linearGradient>
    <rect style="fill:url(#id1)" x="114.53" y="228.93" width="789.67" height="1068.16"/>
   </mask>
   <mask id="id2">
  <linearGradient id="id3" gradientUnits="userSpaceOnUse" x1="2549.11" y1="2471.88" x2="2189.86" y2="1989.68">
   <stop offset="0" style="stop-opacity:1; stop-color:white"/>
   <stop offset="1" style="stop-opacity:0; stop-color:white"/>
  </linearGradient>
    <rect style="fill:url(#id3)" x="1763.41" y="1455.32" width="881.65" height="910.33"/>
   </mask>
  <linearGradient id="id4" gradientUnits="userSpaceOnUse" x1="2579.39" y1="2375.88" x2="251.44" y2="47.93">
   <stop offset="0" style="stop-opacity:1; stop-color:#33BE9E"/>
   <stop offset="1" style="stop-opacity:1; stop-color:#9CFFBD"/>
  </linearGradient>
 </defs>
 <g id="圖層_x0020_1">
  <metadata id="CorelCorpID_0Corel-Layer"/>
  <path class="fil0" d="M64.73 846.45c23.36,-335.43 185.14,-540.91 526.61,-645.67 341.46,-104.76 1192.22,-141.9 1530.43,-130.39 338.22,11.51 510.16,188.84 561.97,472.26 51.81,283.41 52,1110.1 0,1407.27 -52,297.19 -310.43,493.24 -684.9,485.48 -374.46,-7.78 -782.96,-101.01 -1028.42,-50.45 -191.36,39.4 -258.82,172.86 -560.32,323.32 103.81,-168.7 142.22,-376.05 15.08,-467.88 -125.07,-90.33 -262.23,-165.34 -318.71,-391.73 -56.47,-226.42 -62.04,-710.73 -41.74,-1002.21l0 0z"/>
  <path class="fil1" d="M1207.12 752.4c0.93,188.56 -131.23,286.12 -262.05,269.84 -130.82,-16.31 -192.96,-135.99 -171.18,-288.46 37.26,-260.97 290.98,-452.1 569.05,-493.41 304.38,-45.18 668.68,79.14 666.82,518.01 -1.21,291.69 -299.26,374.59 -441.89,653.25 -75.47,147.47 6.72,264.5 -119.99,309.67 -110.89,39.56 -196.93,-66.19 -199.36,-208.22 -5.76,-336.21 290.4,-485.25 333.76,-693.68 67.18,-323 -376.52,-337.69 -375.16,-67l0 0zm176.2 1082.55c102.89,0 186.29,83.43 186.29,186.32 0,102.87 -83.4,186.29 -186.29,186.29 -102.9,0 -186.32,-83.42 -186.32,-186.29 0,-102.89 83.42,-186.32 186.32,-186.32z"/>
  <path class="fil2" style="mask:url(#id0)" d="M892.84 242.01c-30.59,-42.08 -430.35,21.7 -618.85,230.1 -164.63,182 -179.99,632.05 -140.28,800.11 31.7,134.21 355.56,-329.91 487.64,-493.03 217.18,-268.23 316.2,-475.67 271.49,-537.18z"/>
  <path class="fil2" style="mask:url(#id2)" d="M1767.96 2328.37c19.47,49.2 430.43,71.4 657.82,-85.24 231.05,-159.17 233.05,-534.12 207.73,-758.36 -15.53,-137.51 -317.93,258.67 -484.57,379.28 -274.01,198.33 -409.43,392.41 -380.98,464.32z"/>
  <rect class="fil3" width="2776.65" height="2776.65"/>
 </g>
</svg>
